<?xml version="1.0" encoding="utf-8" ?>
<svg xmlns="http://www.w3.org/2000/svg" xmlns:xlink="http://www.w3.org/1999/xlink" width="1024" height="1024">
	<defs>
		<linearGradient id="gradient_0" gradientUnits="userSpaceOnUse" x1="386.82812" y1="353.97964" x2="126.30782" y2="158.99634">
			<stop offset="0" stop-color="#C02CE6"/>
			<stop offset="1" stop-color="#FFA6EC"/>
		</linearGradient>
	</defs>
	<path fill="url(#gradient_0)" transform="scale(2 2)" d="M120.811 167.789C122.206 163.405 140.529 142.494 145.175 137.931C186.732 97.1232 249.299 82.5929 304.726 99.5866C309.83 101.152 316.699 102.801 321.271 105.569C328.811 108.61 335.766 112.814 342.761 116.903C347.074 114.267 351.288 111.942 356.242 110.75C359.146 108.17 364.149 106.777 367.742 105.4C404.078 91.4776 466.475 81.2647 462.881 137.88C461.103 165.894 438.746 197.604 420.926 219.304C419.381 221.186 417.59 223.102 416.325 225.187C428.079 279.661 407.634 339.39 366.64 376.655C336.077 404.438 288.946 422.878 247.874 418.674C219.236 416.495 202.95 410.177 178.014 398.498C175.627 399.062 173.271 400.137 170.986 401.019C150.644 408.879 129.924 415.702 108.074 417.784C81.1412 420.351 50.7723 414.658 48.1593 382.521C45.1966 346.082 74.497 317.812 95.8837 292.471C95.2138 286.964 94.1511 281.503 93.5241 275.988C89.6251 241.691 97.0697 208.194 113.84 178.028C115.656 174.762 117.888 170.109 120.811 167.789ZM128.082 169.757C124.15 175.97 120.172 182.175 116.889 188.764C85.3106 252.146 99.9292 327.282 154.056 373.251C156.11 374.995 158.512 376.587 160.404 378.487C186.765 367.283 210.886 356.51 235.517 341.166C229.652 339.731 224.049 338.179 218.492 335.792C179.331 318.973 159.341 275.988 169.319 235.287C176.098 207.634 196.701 184.749 222.849 173.964C276.084 152.007 339.173 189.972 344.624 247.755C345.066 252.44 344.971 257.138 344.965 261.836C349.086 258.994 352.305 255.182 355.964 251.81C372.117 236.921 389.629 220.027 403.09 202.679C391.631 176.653 381.479 159.286 359.591 139.719C354.259 134.952 348.991 130.207 342.761 126.621C334.088 119.799 313.822 109.823 303.052 107.609C268.807 94.7681 225.79 99.8759 193.255 114.71C168.235 126.118 142.905 145.923 128.285 169.68L128.082 169.757ZM246.576 334.83C261.966 324.82 276.241 315.529 291.46 305.089C292.982 303.065 300.722 298.114 303.247 296.224C307.464 293.068 336.118 271.203 337.044 266.855C338.854 218.551 308.164 177.269 258.199 175.376C215.284 173.75 176.198 209.052 174.788 252.25C173.385 295.235 202.926 331.554 246.576 334.83ZM294.618 332.839C267.474 351.489 235.754 371.886 205.707 385.837C200.736 388.145 191.358 391.729 187.38 394.605C208.982 404.286 226.833 409.273 250.436 410.796C255.479 411.121 260.549 410.657 265.565 411.001C268.582 410.424 271.697 410.233 274.747 409.867C347.718 401.117 407.06 341.16 411.11 267.349C411.748 255.714 410.785 244.411 409.4 232.885C405.612 236.619 402.222 240.823 398.56 244.691C367.359 277.644 331.546 306.627 294.618 332.839ZM384.937 107.609C373.991 112.259 360.348 115.137 350.348 122.102C352.305 123.574 354.476 124.934 356.242 126.621C357.958 127.615 367.207 122.725 369.963 121.663C398.679 110.597 459.601 94.4873 444.206 148.121C431.076 193.864 369.261 252.536 334.395 281.541C325.999 288.526 317.249 295.077 308.792 301.977C256.056 342.567 147.449 408.772 85.3734 400.757C68.6894 398.603 63.2456 387.081 65.2958 371.415C68.1818 349.362 86.5492 327.445 100.503 310.896C100.053 307.872 99.5017 304.914 98.6416 301.977C81.1833 316.707 57.9849 351.919 56.1484 373.505C54.2222 396.145 68.2147 408.466 89.8949 410.013C143.952 413.871 226.466 367.884 270.997 338.98C275.627 335.975 281.328 331.574 286.012 329.088C287.961 327.103 294.011 323.512 296.629 321.595C347.842 284.095 405.933 234.617 438.78 180.279C450.764 160.453 467.866 122.72 441.399 106.99C426.242 97.9813 401.09 103.542 384.937 107.609ZM104.203 319.17C91.8094 333.591 71.2629 360.624 72.826 380.407C74.267 398.642 105.457 393.5 118.444 391.028C129.833 388.524 140.822 385.649 151.687 381.353C137.289 370.684 124.809 355.188 115.306 340.089C113.292 336.889 105.286 320.01 104.203 319.17ZM412.157 118.737C396.511 120.636 378.117 125.681 363.76 132.634L364.034 132.913C381.087 150.164 391.314 160.498 403.09 183.315C404.936 186.989 406.407 191.026 408.57 194.501L409.4 195.831L409.605 195.388C412.332 189.579 416.889 184.352 420.371 178.946C427.93 167.211 442.84 140.801 437.943 126.768C434.752 117.621 419.777 118.191 412.157 118.737Z"/>
	<path fill="#EA5BE7" transform="scale(2 2)" d="M356.242 126.621C354.953 126.57 350.131 123.39 349.962 121.732C353.531 117.978 378.892 108.701 384.592 107.247L384.937 107.609C373.991 112.259 360.348 115.137 350.348 122.102C352.305 123.574 354.476 124.934 356.242 126.621Z"/>
	<path fill="#EA5BE7" transform="scale(2 2)" d="M321.271 105.569C328.811 108.61 335.766 112.814 342.761 116.903C347.074 114.267 351.288 111.942 356.242 110.75C356.007 111.073 342.897 117.613 341.859 117.1C341.126 118.109 340.043 119.993 338.811 120.298L337.356 119.532C336.852 119.755 336.5 119.946 335.939 119.968L335.544 120.869C336.831 123.049 342.719 123.48 342.761 126.621C334.088 119.799 313.822 109.823 303.052 107.609C303.119 106.183 313.394 109.873 316.365 110.319C318.86 108.574 318.142 112.422 323.41 107.54L323.283 107.119C322.9 107.363 322.734 107.581 322.269 107.562L322.378 106.571C322.055 106.63 321.83 106.701 321.525 106.826L321.271 105.569Z"/>
	<path fill="#EA5BE7" transform="scale(2 2)" d="M325.896 336.094C339.905 336.62 342.004 354.759 327.478 357.769C311.96 358.049 311.334 337.652 325.896 336.094ZM325.896 343.761C322.286 346.031 322.659 350.761 327.478 350.206C330.481 348.236 330.046 343.664 325.896 343.761Z"/>
	<defs>
		<linearGradient id="gradient_1" gradientUnits="userSpaceOnUse" x1="295.56381" y1="287.76572" x2="201.89395" y2="221.02605">
			<stop offset="0" stop-color="#E249E9"/>
			<stop offset="1" stop-color="#FF7EE9"/>
		</linearGradient>
	</defs>
	<path fill="url(#gradient_1)" transform="scale(2 2)" d="M261.048 192.336C269.594 191.263 272.525 199.527 272.599 206.48C294.486 212.476 298.669 228.591 291.46 247.984C302.54 255.802 305.005 272.147 298.983 283.787C293.619 294.155 283.177 298.679 272.599 301.977C271.778 320.176 253.723 316.479 252.771 305.24C252.744 304.91 252.771 300.028 250.963 302.09C249.117 304.195 251.018 314.949 239.481 314.589C232.67 313.001 230.806 308.627 230.004 301.977C225.353 301.976 213.128 302.898 209.614 300.491C202.391 295.544 210.394 280.958 218.864 279.651L218.864 228.447C215.23 227.635 211.521 228.664 208.483 225.927C203.581 221.51 206.447 212.774 210.388 208.759C215.135 203.923 222.755 205.208 228.957 205.25C229.577 188.857 246.351 189.081 248.695 200.37C249.151 202.57 248.274 205.514 251.476 204.947C253.482 202.672 249.627 194.099 261.048 192.336ZM261.048 199.207C257.797 201.776 258.912 208.589 258.912 212.21C253.515 212.191 248.149 212.018 242.753 212.21C242.437 209.575 242.909 201.753 240.84 200.271C234.927 196.036 238.197 209.502 233.549 211.62C225.928 215.093 212.924 206.809 214.183 221.244C218.107 221.221 222.034 221.167 225.958 221.244L225.958 286.753C218.218 286.673 216.148 287.326 214.183 295C218.117 294.772 231.855 294.388 235.672 294.951C236.641 296.136 236.947 313.531 242.753 306.285L242.847 305.996C246.179 295.427 238.614 293.429 258.912 295C259.707 297.981 258.344 305.281 261.2 306.974C266.694 310.232 265.569 296.625 265.565 295C268.019 294.73 270.489 294.614 272.913 294.121C297.351 289.152 304.327 258.793 278.778 249.975C292.601 239.237 291.18 221.576 274.993 214.664C272.323 213.524 268.13 213.009 266.181 210.801C263.154 207.374 267.809 199.748 261.048 199.207Z"/>
	<path fill="#EA5BE7" transform="scale(2 2)" d="M242.753 221.244L253.906 221.226C268.754 221.298 275.456 234.711 265.565 243.863C259.689 249.955 250.398 248.024 242.753 247.984L242.753 221.244ZM249.908 228.447L249.908 240.999C253.516 241.142 258.233 242.103 261.048 239.261C263.249 235.277 263.075 231.887 259.512 228.983C256.487 228.084 253.039 228.412 249.908 228.447Z"/>
	<path fill="#EA5BE7" transform="scale(2 2)" d="M242.753 257.742L253.57 257.707C270.376 257.596 284.155 263.097 272.599 280.642C266.79 285.401 260.375 285.458 253.227 285.464L242.753 285.454C242.743 276.262 243.248 266.905 242.753 257.742ZM253.72 264.765C252.452 264.77 251.175 264.807 249.908 264.765C249.871 269.254 249.759 273.773 249.908 278.258C254.478 278.27 259.992 278.846 264.336 277.385C267.217 275.662 268.694 273.664 269.365 270.439C267.248 263.003 259.923 264.678 253.72 264.765Z"/>
	<path fill="#F982E7" transform="scale(2 2)" d="M128.082 214.021C135.737 213.88 132.723 226.081 128.082 228.447C125.531 228.304 124.195 227.652 123.12 225.187C123.71 221.865 124.212 215.278 128.082 214.021Z"/>
	<path fill="#EA5BE7" transform="scale(2 2)" d="M347.463 167.789C358.344 162.31 365.379 183.703 351.066 187.697C336.714 190.158 333.03 167.674 347.463 167.789ZM347.463 174.006C343.601 177.13 345.755 181.233 350.348 180.666C353.103 177.802 352.114 173.337 347.463 174.006Z"/>
	<path fill="#F982E7" transform="scale(2 2)" d="M137.723 275.296C153.098 274.409 155.144 293.246 141.535 297.32C127.801 299.309 122.541 279.454 137.723 275.296ZM138.483 283.259C134.675 286.034 136.304 289.625 140.62 289.518C144.433 287.866 142.285 283.074 138.483 283.259Z"/>
	<path fill="#F982E7" transform="scale(2 2)" d="M256.241 116.903C269.664 116.886 271.551 136.854 256.241 139.01C241.251 138.902 240.847 118.198 256.241 116.903ZM255.295 124.782C250.905 126.169 251.478 130.926 256.241 131.344C260.511 129.623 260.321 124.397 255.295 124.782Z"/>
	<defs>
		<linearGradient id="gradient_2" gradientUnits="userSpaceOnUse" x1="184.62303" y1="170.96935" x2="165.32291" y2="153.6089">
			<stop offset="0" stop-color="#FF7FE4"/>
			<stop offset="1" stop-color="#FBBBEB"/>
		</linearGradient>
	</defs>
	<path fill="url(#gradient_2)" transform="scale(2 2)" d="M217.078 124.782C220.076 124.4 223.581 126.377 222.153 129.935C220.78 133.353 213.995 134.406 210.833 135.531C183.97 145.081 155.612 168.906 143.123 195.03C141.88 197.631 140.602 202.843 137.723 203.992C134.382 204.023 133.091 203.5 131.804 200.25C132.236 198.797 132.847 197.417 133.54 196.071C151.698 160.799 179.207 136.969 217.078 124.782Z"/>
</svg>
