<?xml version="1.0" encoding="utf-8" ?>
<svg xmlns="http://www.w3.org/2000/svg" xmlns:xlink="http://www.w3.org/1999/xlink" width="1024" height="1024">
	<path fill="#8029AB" transform="scale(2 2)" d="M96.129 206.857C103.008 210.602 104.739 211.919 112.715 209.603C112.473 216.68 112.719 223.829 112.721 230.915L112.724 273.419C112.723 278.562 111.864 295.191 112.715 299.398C104.082 298.027 103.807 300.243 96.864 303.797C95.1409 298.592 96.1231 283.99 96.1218 278.07L96.151 216.244C96.1626 213.205 95.8219 209.848 96.129 206.857Z"/>
	<path fill="#8029AB" transform="scale(2 2)" d="M399.218 209.603C405.354 211.777 409.889 209.932 415.296 206.857C416.674 208.805 416.04 220.175 416.041 223.09L416.046 244.489C416.047 264.243 416.356 284.051 416.041 303.797C409.608 301.527 407.758 296.429 399.218 298.465C398.814 295.536 399.117 292.195 399.148 289.227L399.218 209.603Z"/>
	<path fill="#8029AB" transform="scale(2 2)" d="M293.87 92.6599C298.75 92.8146 308.919 101.128 313.302 103.877L367.663 137.761C371.109 139.913 374.745 142.051 377.941 144.564L377.693 144.747C372.508 148.518 368.846 149.368 367.204 156.424C363.685 154.664 360.214 152.053 356.898 149.903L301.178 114.945C295.521 111.384 289.718 108.033 284.206 104.247C288.027 100.206 292.849 98.8808 293.87 92.6599Z"/>
	<defs>
		<linearGradient id="gradient_0" gradientUnits="userSpaceOnUse" x1="77.348717" y1="362.22217" x2="139.52196" y2="315.68909">
			<stop offset="0" stop-color="#F2DE5C"/>
			<stop offset="1" stop-color="#5F15AA"/>
		</linearGradient>
	</defs>
	<path fill="url(#gradient_0)" transform="scale(2 2)" d="M96.864 303.797C103.807 300.243 104.082 298.027 112.715 299.398C118.24 302.191 136.74 313.494 141.346 317.545C144.961 320.725 144.279 325.381 144.275 329.751L144.211 343.742C144.175 346.587 143.914 349.559 144.24 352.383C143.613 358.599 140.406 361.356 135.695 364.683C128.75 367.515 113.509 380.349 107.131 379.733C100.844 379.127 94.3812 373.392 89.3022 370.085C83.2517 366.146 73.709 362.291 72.7454 354.264C72.1536 349.334 71.3984 322.258 74.0272 319.034C76.9323 315.471 91.2436 307.953 96.864 303.797Z"/>
	<defs>
		<linearGradient id="gradient_1" gradientUnits="userSpaceOnUse" x1="374.01248" y1="364.93918" x2="430.96741" y2="313.45883">
			<stop offset="0" stop-color="#F1D361"/>
			<stop offset="1" stop-color="#6315AB"/>
		</linearGradient>
	</defs>
	<path fill="url(#gradient_1)" transform="scale(2 2)" d="M399.218 298.465C407.758 296.429 409.608 301.527 416.041 303.797C422.307 310.551 437.082 313.663 438.125 323.847C438.553 328.031 438.298 332.455 438.303 336.669C438.334 362.847 441.03 357.196 420.231 371.223C395.134 388.149 402.43 377.767 377.941 366.031C363.538 364.589 367.482 342.949 367.204 333.632C366.141 318.026 368.702 318.098 380.76 310.429C386.923 306.509 393.279 302.712 399.218 298.465Z"/>
	<defs>
		<linearGradient id="gradient_2" gradientUnits="userSpaceOnUse" x1="373.69571" y1="193.203" x2="436.39307" y2="146.42113">
			<stop offset="0" stop-color="#F1D35E"/>
			<stop offset="1" stop-color="#5A19A9"/>
		</linearGradient>
	</defs>
	<path fill="url(#gradient_2)" transform="scale(2 2)" d="M377.941 144.564L378.337 144.362C384.772 141.04 396.792 131.644 402.779 130.186C409.046 128.659 429.499 141.75 435.328 145.839C443.509 151.577 440.78 159.566 440.783 168.98C440.792 201.028 440.614 187.02 415.296 206.857C409.889 209.932 405.354 211.777 399.218 209.603C392.821 204.119 370.4 192.847 368.273 186.254C366.376 180.373 367.19 163.437 367.204 156.424C368.846 149.368 372.508 148.518 377.693 144.747L377.941 144.564Z"/>
	<defs>
		<linearGradient id="gradient_3" gradientUnits="userSpaceOnUse" x1="79.743843" y1="196.1754" x2="135.12787" y2="142.41971">
			<stop offset="0" stop-color="#F1CC62"/>
			<stop offset="1" stop-color="#6B17AB"/>
		</linearGradient>
	</defs>
	<path fill="url(#gradient_3)" transform="scale(2 2)" d="M96.129 206.857C92.5034 201.793 74.4703 194.299 72.5539 188.951C71.4874 185.975 70.4624 153.018 72.8657 149.486C74.5031 147.079 99.4082 132.207 103.278 130.28C110.132 126.868 129.669 140.216 135.695 144.564C142.89 147.299 143.568 150.028 144.24 156.424C144.91 161.704 144.202 167.382 144.2 172.723C144.195 186.116 147.393 186.787 134.709 194.748C130.192 197.583 115.8 206.075 112.715 209.603C104.739 211.919 103.008 210.602 96.129 206.857Z"/>
	<defs>
		<linearGradient id="gradient_4" gradientUnits="userSpaceOnUse" x1="230.2263" y1="458.39062" x2="282.04272" y2="403.85248">
			<stop offset="0" stop-color="#F0D059"/>
			<stop offset="1" stop-color="#7015AA"/>
		</linearGradient>
	</defs>
	<path fill="url(#gradient_4)" transform="scale(2 2)" d="M228.568 406.112C235.474 401.166 250.499 388.584 259.487 390.248C266.961 391.63 279.415 404.932 284.206 406.112C289.133 411.35 292.143 410.471 293.87 418.643L293.849 418.916C293.385 425.609 295.007 444.395 293.05 449.136C291.4 453.131 266.35 467.739 261.385 470.173C252.989 474.29 245.852 466.728 238.454 462.173C232.575 458.554 219.978 453.151 218.948 445.507C218.053 438.857 218.62 425.612 218.777 418.643C218.047 412.193 223.558 408.804 228.568 406.112Z"/>
	<defs>
		<linearGradient id="gradient_5" gradientUnits="userSpaceOnUse" x1="226.8222" y1="103.86363" x2="285.10654" y2="51.200756">
			<stop offset="0" stop-color="#F1D05F"/>
			<stop offset="1" stop-color="#5718A8"/>
		</linearGradient>
	</defs>
	<path fill="url(#gradient_5)" transform="scale(2 2)" d="M218.777 92.6599C219.065 84.9456 216.582 61.5116 221.486 56.4099C223.848 53.9523 246.185 40.2166 251.268 37.9739C259.257 34.4493 266.215 40.8719 272.542 44.8152C289.304 55.2627 293.882 52.4589 293.885 72.3591L293.87 92.6599C292.849 98.8808 288.027 100.206 284.206 104.247L283.853 104.361C273.847 107.645 261.124 122.953 250.483 117.803C242.967 114.165 236.223 107.713 228.568 104.247L227.285 103.446C222.979 100.711 219.934 97.8035 218.777 92.6599Z"/>
	<path fill="#8029AB" transform="scale(2 2)" d="M144.24 352.383C151.643 356.03 158.897 361.336 165.868 365.805C181.707 375.958 197.337 386.474 213.299 396.427C218.326 399.561 223.14 403.751 228.568 406.112C223.558 408.804 218.047 412.193 218.777 418.643C217.691 416.635 214.317 415.337 212.454 414.107L154.411 376.833C149.171 373.538 139.574 368.797 135.695 364.683C140.406 361.356 143.613 358.599 144.24 352.383Z"/>
	<path fill="#8029AB" transform="scale(2 2)" d="M367.204 333.632C367.482 342.949 363.538 364.589 377.941 366.031C363.532 374.325 349.615 383.371 335.58 392.271L296.812 416.543C295.8 417.177 294.88 418.06 293.87 418.643C292.143 410.471 289.133 411.35 284.206 406.112C293.335 398.161 312.785 387.874 323.893 381.003L351.399 363.772C356.539 360.547 361.701 356.837 367.204 354.281C367.21 347.741 366.725 340.016 367.204 333.632Z"/>
	<path fill="#8029AB" transform="scale(2 2)" d="M135.695 144.564C139.889 139.784 159.97 128.788 166.987 124.408L201.134 103.177C207.021 99.5661 212.555 95.7075 218.777 92.6599C219.934 97.8035 222.979 100.711 227.285 103.446L228.568 104.247C226.422 107.035 200.615 121.985 195.529 125.175L167.772 142.555C160.366 147.218 152.529 153.433 144.24 156.424C143.568 150.028 142.89 147.299 135.695 144.564Z"/>
	<defs>
		<linearGradient id="gradient_6" gradientUnits="userSpaceOnUse" x1="186.6613" y1="358.40482" x2="222.09361" y2="217.8506">
			<stop offset="0" stop-color="#F1E24E"/>
			<stop offset="1" stop-color="#820BAB"/>
		</linearGradient>
	</defs>
	<path fill="url(#gradient_6)" transform="scale(2 2)" d="M154.209 200.628C157.498 200.673 162.847 205.181 165.629 206.931L234.765 249.964C239.089 252.629 251.958 261.636 255.994 262.023C255.842 265.381 255.985 268.762 255.99 272.125L256.003 351.434C256.003 359.587 256.395 367.958 255.994 376.089C247.321 375.78 236.951 366.929 229.898 362.394L171.489 324.915C149.51 311.021 152.254 316.672 152.251 290.133L152.239 220.333C152.237 214.764 150.531 205.067 154.209 200.628Z"/>
	<defs>
		<linearGradient id="gradient_7" gradientUnits="userSpaceOnUse" x1="304.75745" y1="377.08966" x2="311.41779" y2="201.47386">
			<stop offset="0" stop-color="#F1DB67"/>
			<stop offset="1" stop-color="#7824AA"/>
		</linearGradient>
	</defs>
	<path fill="url(#gradient_7)" transform="scale(2 2)" d="M255.994 262.023C266.544 258.436 278.392 249.849 287.907 244.023L335.595 214.879C340.474 211.926 353.708 202.262 359.011 202.968C362.449 209.335 360.806 219.63 360.804 226.824L360.809 294.637C360.822 317.555 361.867 312.278 344.06 323.314L293.963 354.383C285.319 359.685 262.84 375.202 255.994 376.089C256.395 367.958 256.003 359.587 256.003 351.434L255.99 272.125C255.985 268.762 255.842 265.381 255.994 262.023Z"/>
	<defs>
		<linearGradient id="gradient_8" gradientUnits="userSpaceOnUse" x1="253.5435" y1="261.19073" x2="259.73343" y2="135.1711">
			<stop offset="0" stop-color="#F0DCA0"/>
			<stop offset="1" stop-color="#7824AA"/>
		</linearGradient>
	</defs>
	<path fill="url(#gradient_8)" transform="scale(2 2)" d="M154.209 200.628C156.039 190.755 171.157 184.906 179.723 179.648L213.314 158.851C220.385 154.471 249.987 133.433 257.308 134.762C265.039 136.166 306.161 163.516 314.555 168.671L336.431 181.994C346.62 188.166 356.713 190.82 359.011 202.968C353.708 202.262 340.474 211.926 335.595 214.879L287.907 244.023C278.392 249.849 266.544 258.436 255.994 262.023C251.958 261.636 239.089 252.629 234.765 249.964L165.629 206.931C162.847 205.181 157.498 200.673 154.209 200.628Z"/>
</svg>
